# xmcd CD database file
#
# Track frame offsets:
#	150
#	17482
#	32644
#	53628
#	73373
#	93173
#	114442
#	134689
#	155917
#	168629
#	187824
#	205033
#	215938
#	237470
#	253302
#	269087
#	284805
#
# Disc length: 4067 seconds
#
# Revision: 1
# Processed by: cddbd v1.5PL3 Copyright (c) Steve Scherf et al.
# Submitted via: CDex 1.51
#
DISCID=120fe111
DTITLE=Le Blues Autour Du Zinc - Various Artists
DYEAR=2004
DGENRE=Blues
TTITLE0=Hawksley Workman - We Still Need A Song
TTITLE1=Malia - Purple Shoes
TTITLE2=Steve Hill - One Woman Man
TTITLE3=Divididedbythree - I Can See Though You
TTITLE4=Dawn Tyler Blues Project - Shoot The Devil
TTITLE5=Jesus Volt - Funky Mama
TTITLE6=The Swing Commanders - Is You Is Or Is You Ain't My Baby
TTITLE7=Rob Togoni - Shakin'The Devils Hand
TTITLE8=Ervin Travis and His Virginans - Should I Ever Love Again
TTITLE9=Mason Casey - She's From N.Y.C
TTITLE10=The Moonshine Playboys - Going Up The Country
TTITLE11=The Experimental Tropic Blues Band - Lux Interior Blues
TTITLE12=Willy Willy and The Vodoo Band - Last Call For Alcohol
TTITLE13=Little Toby Walker - By your side
TTITLE14=The Jive Aces - Ride,Ride,Ride
TTITLE15=The Ugly Buggy Boys - Honky Tonkin
TTITLE16=Danny Bryant's Redeyeband - Going Back Home
EXTD=YEAR: 2004
EXTT0=
EXTT1=
EXTT2=
EXTT3=
EXTT4=
EXTT5=
EXTT6=
EXTT7=
EXTT8=
EXTT9=
EXTT10=
EXTT11=
EXTT12=
EXTT13=
EXTT14=
EXTT15=
EXTT16=
PLAYORDER=
